<svg id="Layer_1" data-name="Layer 1" xmlns="http://www.w3.org/2000/svg" viewBox="0 0 470.79 496.63"><defs><style>.cls-1{fill:#384250;}.cls-2{fill:#2978c7;}</style></defs><title>hacking</title><path class="cls-1" d="M422.3,440.43c-6.09-5.11-12.44-9.74-18-15.2-19.73-19.54-22.31-42.55-7.59-66.16a79.11,79.11,0,0,1,10.17-13.56c16.07-16.44,26.12-36.29,34-57.57,5-13.39,10-26.78,15.81-39.83,12.36-28,35-42.21,64.53-46.49a129,129,0,0,1,50.11,2.19c26.65,6.65,44.93,23,55.22,48.31,6.33,15.55,12.12,31.31,18.31,46.91a146.94,146.94,0,0,0,27.5,44.26A109.13,109.13,0,0,1,688.68,367c9.2,18.43,7,36.43-6.37,52.13-6.71,7.9-15,14.43-22.43,21.37,4.65,1.54,10.21,3.16,15.59,5.22,28.09,10.73,46.37,31,58.33,58.25,14.34,32.69,24.19,66.86,34.86,100.77,3,9.47,5.85,19.17,7,29C778,652.86,769,664,749.79,665.3c-18.08,1.22-36.28.83-54.43,1-1.14,0-2.48-1.14-3.42-2.06-4-3.9-8-7.85-11.77-11.92-.93-1-1.95-2.64-1.78-3.82q7.79-54.36,15.85-108.69c1.76-12,3.78-24,5.29-36,2.34-18.62-11-34-29.87-34q-128.71-.18-257.44,0c-20.05,0-33.11,16.3-30.1,36.08,6.07,39.81,11.77,79.68,17.61,119.53,1.11,7.57,2.32,15.13,3.2,22.74a6.22,6.22,0,0,1-1.71,4.27c-3.78,4.11-7.77,8-11.77,11.92-.95.92-2.28,2.07-3.43,2.06-18.15-.16-36.29-.47-54.44-.83a26.62,26.62,0,0,1-5.39-1c-14.84-3.48-22.43-13.1-20.71-28.24a147.66,147.66,0,0,1,6.24-28.13q14-43.92,29.06-87.51c3.08-8.91,7.57-17.35,11.6-25.92,13.39-28.56,36.74-44.75,66.31-53.15C419.94,441.16,421.17,440.77,422.3,440.43ZM636.35,358l.83-.31c-.77-1.74-1.25-3.69-2.35-5.18C624.55,338.58,615,324,603.6,311.12c-16.35-18.44-38-29.38-60.86-37.77a6.63,6.63,0,0,0-4.22,0c-23.19,8.58-45,19.73-61.53,38.54-11.24,12.84-20.63,27.3-30.78,41.09a36.44,36.44,0,0,0-2.61,5l.67.5,22.23-17.18c3.15,15.42,5.65,30.33,9.3,44.95,6.94,27.8,23.07,48.25,49.88,59.66a36.64,36.64,0,0,0,30,.05,84.39,84.39,0,0,0,32.93-24.43c11.33-13.78,16.48-30.24,20.06-47.27,2.27-10.79,3.82-21.74,5.81-33.35Z" transform="translate(-305.24 -200.15)"/><path class="cls-2" d="M540.69,487.41H666.64c12.21,0,16.69,4.84,15,17.06-4,28.17-8.26,56.3-12.4,84.44-3.65,24.85-7.26,49.71-11,74.55-.34,2.3.19,3.11,2.42,2.94.66,0,1.34.05,2,0,11.88-1.21,18,7.05,15.69,19.94-1.19,6.67-6.28,10.28-13.89,10.29q-41.24.06-82.47,0c-54.31,0-108.62-.19-162.93.14-12.37.08-17.75-7-16.08-19.38.9-6.7,6.15-10.85,13.33-11s7.35-.17,6.37-6.84q-8.2-56.05-16.52-112.08c-2.21-15-4.54-29.94-6.44-45-1.28-10,3.51-15.1,13.57-15.1Q477,487.39,540.69,487.41Zm-.15,151v.09c4.33,0,8.67.18,13,0,8.72-.46,11.3-2.52,12.89-10.88.75-3.9,2.86-5.88,6.41-6.63,2.11-.44,4.29-.48,6.44-.77,8.81-1.18,10.91-5.58,6.37-13.41-.75-1.29-2.07-2.35-2.47-3.71-.49-1.64-1-4.07-.23-5.16,9.06-12.2,9.62-26.39,9.4-40.58s-6.68-25.71-19.08-33.06c-21.86-13-43.91-12.68-65.68.33-6.87,4.1-12.49,9.8-15.1,17.44-6,17.63-5,35.12,3.7,51.64,2.47,4.67,3.91,7.6.19,12.53-5.89,7.82-3.16,12.94,6.47,14.08,1,.11,2,.14,3,.22,5.2.39,8.57,2.39,9.46,8.23,1.05,6.85,3.86,9,11.28,9.61C531.19,638.68,535.88,638.38,540.54,638.38Zm.18,33.22h75.94c1.5,0,3.27.43,4.42-.21,1.52-.84,3.62-2.62,3.54-3.88-.1-1.66-1.84-3.49-3.32-4.69-.83-.67-2.57-.24-3.9-.24H464.51c-1.49,0-3.39-.46-4.39.27-1.52,1.1-3.22,3-3.32,4.68-.07,1.26,2.07,2.89,3.54,3.9.81.55,2.27.17,3.43.17Z" transform="translate(-305.24 -200.15)"/><path class="cls-2" d="M521.51,583.45c-11.79.07-19.16-8.09-16.91-18.65.79-3.74,2-4.86,6.1-2.94a221,221,0,0,0,22.23,8.53c2.27.78,3,1.21,1.92,3.65C532.2,580.13,527.77,583.42,521.51,583.45Z" transform="translate(-305.24 -200.15)"/><path class="cls-2" d="M560.05,583.46c-6.5,0-11.39-3.4-13.48-9.79-.26-.78.86-2.7,1.77-3.07,7.65-3.14,15.52-5.78,23.08-9.12,3.51-1.54,4.49-.17,5.27,2.64C579.58,574.6,572,583.43,560.05,583.46Z" transform="translate(-305.24 -200.15)"/><path class="cls-2" d="M523.88,607.63c.11-6.61,5-12.35,9.73-12.9.61-.07,2,1.37,2,1.91a119.21,119.21,0,0,1-3,13.51c-.27.88-3,2-3.77,1.56A27,27,0,0,1,523.88,607.63Z" transform="translate(-305.24 -200.15)"/><path class="cls-2" d="M557.52,607.83c-1.2.93-3.06,3.27-5.43,4-3.77,1.19-3.36-2.38-3.88-4.64-.78-3.38-1.73-6.73-2.27-10.14-.11-.69,1.34-2.37,1.92-2.3C552.7,595.37,557.46,601.07,557.52,607.83Z" transform="translate(-305.24 -200.15)"/></svg>